<mxfile host="app.diagrams.net" modified="2023-01-09T08:39:17.459Z" agent="5.0 (Windows NT 10.0; Win64; x64) AppleWebKit/537.36 (KHTML, like Gecko) Chrome/108.0.0.0 Safari/537.36 Edg/108.0.1462.76" etag="zBYtzuWadUY1GQEto-O6" version="20.4.1" type="github">
  <diagram id="p9DspqGECzixm5kFA4UX" name="第 1 页">
    <mxGraphModel dx="872" dy="579" grid="1" gridSize="10" guides="1" tooltips="1" connect="1" arrows="1" fold="1" page="1" pageScale="1" pageWidth="827" pageHeight="1169" math="0" shadow="0">
      <root>
        <mxCell id="0" />
        <mxCell id="1" parent="0" />
        <mxCell id="qzfx54V2dKBK7UpTi6s--1" value="测试AbcEdg222MNO" style="rounded=1;whiteSpace=wrap;html=1;" vertex="1" parent="1">
          <mxGeometry x="350" y="270" width="120" height="60" as="geometry" />
        </mxCell>
      </root>
    </mxGraphModel>
  </diagram>
</mxfile>
